<?xml version="1.0" encoding="UTF-8" standalone="no"?>
<!DOCTYPE svg PUBLIC "-//W3C//DTD SVG 1.1//EN" "http://www.w3.org/Graphics/SVG/1.1/DTD/svg11.dtd">
<svg width="100%" height="100%" viewBox="0 0 4158 4158" version="1.1" xmlns="http://www.w3.org/2000/svg" xmlns:xlink="http://www.w3.org/1999/xlink" xml:space="preserve" xmlns:serif="http://www.serif.com/" style="fill-rule:evenodd;clip-rule:evenodd;stroke-linejoin:round;stroke-miterlimit:2;">
    <path d="M2701.4,452.339C2743.06,468.414 2784.11,486.116 2824.47,505.415L3065.16,308.933C3200.95,385.259 3327.4,477.128 3441.95,582.686L3329.47,872.321C3434.03,982.273 3523.6,1105.56 3595.86,1238.98L3906.08,1221.5C3971.07,1363.07 4019.37,1511.71 4050,1664.44L3788.75,1832.64C3808.72,1983.06 3808.72,2135.45 3788.75,2285.86L4050,2454.06C4019.37,2606.79 3971.07,2755.44 3906.08,2897L3595.86,2879.53C3523.6,3012.95 3434.03,3136.23 3329.47,3246.18L3441.95,3535.82C3327.4,3641.38 3200.95,3733.24 3065.16,3809.57L2824.47,3613.09C2687.58,3678.55 2542.65,3725.64 2393.43,3753.14L2314.19,4053.58C2159.47,4071.64 2003.18,4071.64 1848.46,4053.58L1769.22,3753.14C1620,3725.64 1475.07,3678.55 1338.18,3613.09L1097.48,3809.57C961.694,3733.24 835.248,3641.38 720.696,3535.82L833.181,3246.18C728.621,3136.23 639.049,3012.95 566.789,2879.53L256.569,2897C191.576,2755.44 143.278,2606.79 112.649,2454.06L373.895,2285.86C353.932,2135.45 353.932,1983.06 373.895,1832.64L112.649,1664.44C143.278,1511.71 191.576,1363.07 256.569,1221.5L566.789,1238.98C639.049,1105.56 728.621,982.273 833.181,872.321L720.696,582.686C835.248,477.128 961.694,385.259 1097.48,308.933L1338.18,505.415C1378.54,486.116 1419.59,468.414 1461.25,452.339L1461.25,452.953C1461.25,566.573 1491.87,673.097 1545.31,764.712C1037.76,975.326 680.419,1475.89 680.419,2059.25C680.419,2832.43 1308.14,3460.16 2081.32,3460.16C2854.51,3460.16 3482.23,2832.43 3482.23,2059.25C3482.23,1475.89 3124.89,975.326 2617.34,764.712C2670.78,673.097 2701.4,566.573 2701.4,452.953L2701.4,452.339Z" style="fill:rgb(59,131,181);"/>
    <g id="Background">
    </g>
    <g transform="matrix(0.48467,0,0,0.48467,-225.628,-1161.93)">
        <circle cx="4759.84" cy="3437.01" r="625.984" style="fill:rgb(249,249,249);"/>
    </g>
    <g transform="matrix(1,0,0,1,-871.084,-3135.38)">
        <g transform="matrix(2500,0,0,2500,1992.33,6075.37)">
            <path d="M0.085,-0L0.227,-0L0.227,-0.451L0.234,-0.451L0.561,-0L0.683,-0L0.683,-0.705L0.542,-0.705L0.542,-0.256L0.534,-0.256L0.208,-0.705L0.085,-0.705L0.085,-0Z" style="fill:rgb(249,249,249);fill-rule:nonzero;"/>
        </g>
    </g>
</svg>
