<?xml version="1.0" encoding="UTF-8" standalone="no"?>
<!DOCTYPE svg PUBLIC "-//W3C//DTD SVG 1.1//EN" "http://www.w3.org/Graphics/SVG/1.1/DTD/svg11.dtd">
<svg width="100%" height="100%" viewBox="0 0 195 44" version="1.1" xmlns="http://www.w3.org/2000/svg" xmlns:xlink="http://www.w3.org/1999/xlink" xml:space="preserve" xmlns:serif="http://www.serif.com/" style="fill-rule:evenodd;clip-rule:evenodd;stroke-linejoin:round;stroke-miterlimit:2;">
    <g transform="matrix(1,0,0,1,-5.73695,-202.738)">
        <path d="M176.371,202.738C172.625,202.738 172.251,206.988 167.467,206.988C166.305,206.982 44.965,206.99 44.965,206.99L45.041,206.992C42.451,206.93 39.813,207.066 37.242,207.92C35.218,208.592 33.357,209.936 31.744,211.672L8.896,211.619C6.451,211.617 4.936,214.28 6.187,216.381L13.492,228.656L6.158,241.482C4.956,243.582 6.472,246.197 8.892,246.197L33.055,246.197C33.82,246.159 34.544,245.844 35.644,244.751C36.743,243.657 39.228,241.564 44.965,241.564C46.705,241.564 48.115,241.562 48.115,241.562L170.134,241.542C172.003,241.523 174.936,240.154 176.667,237.316L197.494,237.316C199.914,237.316 201.43,234.702 200.229,232.601L192.895,219.775L200.199,207.5C201.449,205.4 199.936,202.738 197.492,202.738L176.371,202.738Z" style="fill:rgb(41,50,82);fill-rule:nonzero;"/>
    </g>
    <g transform="matrix(1,0,0,1,-5.73695,-202.738)">
        <path d="M8.593,214.769L16.492,228.041C16.741,228.399 16.741,228.874 16.492,229.232L8.593,243.046L30.942,243.046L30.942,214.769L8.593,214.769ZM176.089,205.889L176.089,234.166L197.493,234.166L189.595,220.351C189.345,219.993 189.345,219.518 189.595,219.16L197.492,205.889L176.089,205.889ZM33.028,215.025L33.028,242.814C33.036,242.872 33.039,242.93 33.038,242.988C36.861,238.971 38.366,238.414 44.966,238.414L44.966,238.412L167.376,238.41C172.029,238.317 173.477,236.44 173.928,235.547L173.928,208.345C172.046,209.963 171.129,210.164 167.477,210.133L167.477,210.139L167.343,210.139C167.331,210.139 167.321,210.141 167.309,210.141C167.298,210.14 167.286,210.14 167.274,210.139L44.966,210.141C39.914,210.141 37.126,210.115 33.028,215.025L33.028,215.025Z" style="fill:rgb(54,121,146);fill-rule:nonzero;"/>
    </g>
    <g transform="matrix(1,0,0,1,-9.20064,17.0207)">
        <text x="46.253px" y="11.551px" style="font-family:'Arial-BoldMT', 'Arial', sans-serif;font-weight:700;font-size:18.667px;fill:rgb(237,237,237);">NumDot Docs</text>
    </g>
</svg>
