<?xml version="1.0" encoding="UTF-8" standalone="no"?>
<!DOCTYPE svg PUBLIC "-//W3C//DTD SVG 1.1//EN" "http://www.w3.org/Graphics/SVG/1.1/DTD/svg11.dtd">
<svg width="100%" height="100%" viewBox="0 0 223 49" version="1.1" xmlns="http://www.w3.org/2000/svg" xmlns:xlink="http://www.w3.org/1999/xlink" xml:space="preserve" xmlns:serif="http://www.serif.com/" style="fill-rule:evenodd;clip-rule:evenodd;stroke-linecap:round;stroke-linejoin:round;stroke-miterlimit:1.5;">
    <g transform="matrix(1,0,0,1,21.8834,-202.738)">
        <path d="M176.371,202.738C172.625,202.738 172.251,206.988 167.467,206.988C166.305,206.982 44.965,206.99 44.965,206.99L45.041,206.992C42.451,206.93 39.813,207.066 37.242,207.92C35.218,208.592 31.744,211.672 31.744,211.672C31.744,211.672 30.256,212.835 30.492,216.381L30.492,228.656L30.462,241.482C29.261,243.582 30.777,246.197 33.197,246.197L33.055,246.197C33.82,246.159 34.544,245.844 35.644,244.751C36.743,243.657 39.228,241.564 44.965,241.564C46.705,241.564 48.115,241.562 48.115,241.562L170.134,241.542C172.003,241.523 174.936,240.154 176.667,237.316L197.494,237.316C199.914,237.316 201.43,234.702 200.229,232.601L192.895,219.775L200.199,207.5C201.449,205.4 199.936,202.738 197.492,202.738L176.371,202.738Z" style="fill:rgb(41,50,82);fill-rule:nonzero;"/>
    </g>
    <g transform="matrix(1,0,0,1,21.8834,-202.738)">
        <path d="M176.089,205.889L176.089,234.166L197.493,234.166L189.595,220.351C189.345,219.993 189.345,219.518 189.595,219.16L197.492,205.889L176.089,205.889ZM33.028,215.025L33.028,242.814C33.036,242.872 33.039,242.93 33.038,242.988C36.861,238.971 38.366,238.414 44.966,238.414L44.966,238.412L167.376,238.41C172.029,238.317 173.477,236.44 173.928,235.547L173.928,208.345C172.046,209.963 171.129,210.164 167.477,210.133L167.477,210.139L167.343,210.139C167.331,210.139 167.321,210.141 167.309,210.141C167.298,210.14 167.286,210.14 167.274,210.139L44.966,210.141C39.914,210.141 37.126,210.115 33.028,215.025L33.028,215.025Z" style="fill:url(#_Linear1);fill-rule:nonzero;"/>
    </g>
    <g transform="matrix(1,0,0,1,65.4266,28.5717)">
        <g transform="matrix(18.667,0,0,18.667,0,0)">
            <path d="M0.074,-0L0.074,-0.716L0.215,-0.716L0.508,-0.238L0.508,-0.716L0.642,-0.716L0.642,-0L0.497,-0L0.208,-0.467L0.208,-0L0.074,-0Z" style="fill:rgb(237,237,237);fill-rule:nonzero;"/>
        </g>
        <g transform="matrix(18.667,0,0,18.667,13.4807,0)">
            <path d="M0.413,-0L0.413,-0.078C0.394,-0.05 0.369,-0.028 0.339,-0.012C0.308,0.004 0.275,0.012 0.241,0.012C0.206,0.012 0.175,0.004 0.147,-0.011C0.12,-0.027 0.1,-0.048 0.087,-0.076C0.075,-0.103 0.069,-0.142 0.069,-0.19L0.069,-0.519L0.206,-0.519L0.206,-0.28C0.206,-0.207 0.209,-0.163 0.214,-0.146C0.219,-0.13 0.228,-0.117 0.241,-0.107C0.255,-0.098 0.271,-0.093 0.292,-0.093C0.315,-0.093 0.336,-0.099 0.355,-0.112C0.374,-0.125 0.386,-0.141 0.393,-0.16C0.4,-0.179 0.403,-0.226 0.403,-0.3L0.403,-0.519L0.541,-0.519L0.541,-0L0.413,-0Z" style="fill:rgb(237,237,237);fill-rule:nonzero;"/>
        </g>
        <g transform="matrix(18.667,0,0,18.667,24.8833,0)">
            <path d="M0.062,-0.519L0.188,-0.519L0.188,-0.448C0.233,-0.503 0.287,-0.53 0.35,-0.53C0.383,-0.53 0.412,-0.523 0.436,-0.51C0.46,-0.496 0.48,-0.475 0.496,-0.448C0.519,-0.475 0.543,-0.496 0.57,-0.51C0.596,-0.523 0.624,-0.53 0.654,-0.53C0.692,-0.53 0.725,-0.523 0.751,-0.507C0.777,-0.492 0.797,-0.469 0.81,-0.439C0.819,-0.417 0.824,-0.381 0.824,-0.332L0.824,-0L0.687,-0L0.687,-0.296C0.687,-0.348 0.682,-0.381 0.673,-0.396C0.66,-0.416 0.641,-0.425 0.614,-0.425C0.595,-0.425 0.577,-0.419 0.56,-0.408C0.543,-0.396 0.531,-0.379 0.523,-0.356C0.516,-0.334 0.512,-0.298 0.512,-0.249L0.512,-0L0.375,-0L0.375,-0.284C0.375,-0.335 0.373,-0.367 0.368,-0.382C0.363,-0.396 0.355,-0.407 0.345,-0.415C0.335,-0.422 0.321,-0.425 0.303,-0.425C0.282,-0.425 0.263,-0.42 0.246,-0.408C0.229,-0.397 0.217,-0.38 0.21,-0.359C0.202,-0.337 0.199,-0.302 0.199,-0.252L0.199,-0L0.062,-0L0.062,-0.519Z" style="fill:rgb(237,237,237);fill-rule:nonzero;"/>
        </g>
        <g transform="matrix(18.667,0,0,18.667,41.4812,0)">
            <path d="M0.072,-0.716L0.336,-0.716C0.396,-0.716 0.441,-0.711 0.473,-0.702C0.515,-0.69 0.551,-0.668 0.581,-0.636C0.611,-0.605 0.633,-0.566 0.649,-0.52C0.665,-0.475 0.672,-0.418 0.672,-0.351C0.672,-0.292 0.665,-0.241 0.65,-0.199C0.632,-0.147 0.607,-0.104 0.574,-0.072C0.549,-0.048 0.515,-0.029 0.472,-0.015C0.44,-0.005 0.398,-0 0.344,-0L0.072,-0L0.072,-0.716ZM0.217,-0.595L0.217,-0.121L0.325,-0.121C0.365,-0.121 0.394,-0.123 0.412,-0.127C0.436,-0.133 0.455,-0.143 0.47,-0.157C0.486,-0.171 0.499,-0.194 0.508,-0.226C0.518,-0.258 0.523,-0.302 0.523,-0.357C0.523,-0.413 0.518,-0.455 0.508,-0.485C0.499,-0.514 0.485,-0.538 0.467,-0.554C0.45,-0.571 0.427,-0.582 0.4,-0.588C0.38,-0.592 0.341,-0.595 0.282,-0.595L0.217,-0.595Z" style="fill:rgb(237,237,237);fill-rule:nonzero;"/>
        </g>
        <g transform="matrix(18.667,0,0,18.667,54.9619,0)">
            <path d="M0.04,-0.267C0.04,-0.312 0.051,-0.356 0.074,-0.399C0.096,-0.442 0.128,-0.474 0.169,-0.497C0.21,-0.519 0.256,-0.53 0.307,-0.53C0.386,-0.53 0.45,-0.505 0.5,-0.454C0.55,-0.403 0.575,-0.339 0.575,-0.261C0.575,-0.182 0.55,-0.117 0.499,-0.066C0.449,-0.014 0.385,0.012 0.308,0.012C0.261,0.012 0.215,0.001 0.172,-0.021C0.129,-0.042 0.096,-0.073 0.074,-0.115C0.051,-0.156 0.04,-0.207 0.04,-0.267ZM0.181,-0.259C0.181,-0.208 0.193,-0.168 0.217,-0.141C0.242,-0.114 0.272,-0.1 0.308,-0.1C0.343,-0.1 0.373,-0.114 0.398,-0.141C0.422,-0.168 0.434,-0.208 0.434,-0.26C0.434,-0.311 0.422,-0.35 0.398,-0.377C0.373,-0.405 0.343,-0.418 0.308,-0.418C0.272,-0.418 0.242,-0.405 0.217,-0.377C0.193,-0.35 0.181,-0.311 0.181,-0.259Z" style="fill:rgb(237,237,237);fill-rule:nonzero;"/>
        </g>
        <g transform="matrix(18.667,0,0,18.667,66.3645,0)">
            <path d="M0.31,-0.519L0.31,-0.409L0.216,-0.409L0.216,-0.2C0.216,-0.158 0.217,-0.133 0.219,-0.126C0.22,-0.119 0.224,-0.113 0.231,-0.109C0.237,-0.104 0.245,-0.102 0.254,-0.102C0.267,-0.102 0.285,-0.106 0.309,-0.115L0.321,-0.009C0.289,0.005 0.253,0.012 0.212,0.012C0.188,0.012 0.165,0.008 0.146,-0.001C0.126,-0.009 0.111,-0.02 0.102,-0.033C0.093,-0.046 0.086,-0.064 0.083,-0.086C0.08,-0.102 0.078,-0.135 0.078,-0.183L0.078,-0.409L0.015,-0.409L0.015,-0.519L0.078,-0.519L0.078,-0.622L0.216,-0.702L0.216,-0.519L0.31,-0.519Z" style="fill:rgb(237,237,237);fill-rule:nonzero;"/>
        </g>
        <g transform="matrix(18.667,0,0,18.667,77.767,0)">
            <path d="M0.072,-0.716L0.336,-0.716C0.396,-0.716 0.441,-0.711 0.473,-0.702C0.515,-0.69 0.551,-0.668 0.581,-0.636C0.611,-0.605 0.633,-0.566 0.649,-0.52C0.665,-0.475 0.672,-0.418 0.672,-0.351C0.672,-0.292 0.665,-0.241 0.65,-0.199C0.632,-0.147 0.607,-0.104 0.574,-0.072C0.549,-0.048 0.515,-0.029 0.472,-0.015C0.44,-0.005 0.398,-0 0.344,-0L0.072,-0L0.072,-0.716ZM0.217,-0.595L0.217,-0.121L0.325,-0.121C0.365,-0.121 0.394,-0.123 0.412,-0.127C0.436,-0.133 0.455,-0.143 0.47,-0.157C0.486,-0.171 0.499,-0.194 0.508,-0.226C0.518,-0.258 0.523,-0.302 0.523,-0.357C0.523,-0.413 0.518,-0.455 0.508,-0.485C0.499,-0.514 0.485,-0.538 0.467,-0.554C0.45,-0.571 0.427,-0.582 0.4,-0.588C0.38,-0.592 0.341,-0.595 0.282,-0.595L0.217,-0.595Z" style="fill:rgb(237,237,237);fill-rule:nonzero;"/>
        </g>
        <g transform="matrix(18.667,0,0,18.667,91.2477,0)">
            <path d="M0.04,-0.267C0.04,-0.312 0.051,-0.356 0.074,-0.399C0.096,-0.442 0.128,-0.474 0.169,-0.497C0.21,-0.519 0.256,-0.53 0.307,-0.53C0.386,-0.53 0.45,-0.505 0.5,-0.454C0.55,-0.403 0.575,-0.339 0.575,-0.261C0.575,-0.182 0.55,-0.117 0.499,-0.066C0.449,-0.014 0.385,0.012 0.308,0.012C0.261,0.012 0.215,0.001 0.172,-0.021C0.129,-0.042 0.096,-0.073 0.074,-0.115C0.051,-0.156 0.04,-0.207 0.04,-0.267ZM0.181,-0.259C0.181,-0.208 0.193,-0.168 0.217,-0.141C0.242,-0.114 0.272,-0.1 0.308,-0.1C0.343,-0.1 0.373,-0.114 0.398,-0.141C0.422,-0.168 0.434,-0.208 0.434,-0.26C0.434,-0.311 0.422,-0.35 0.398,-0.377C0.373,-0.405 0.343,-0.418 0.308,-0.418C0.272,-0.418 0.242,-0.405 0.217,-0.377C0.193,-0.35 0.181,-0.311 0.181,-0.259Z" style="fill:rgb(237,237,237);fill-rule:nonzero;"/>
        </g>
        <g transform="matrix(18.667,0,0,18.667,102.65,0)">
            <path d="M0.524,-0.365L0.389,-0.341C0.384,-0.368 0.374,-0.388 0.358,-0.402C0.342,-0.416 0.321,-0.422 0.295,-0.422C0.261,-0.422 0.233,-0.411 0.213,-0.387C0.193,-0.363 0.183,-0.324 0.183,-0.269C0.183,-0.207 0.193,-0.164 0.214,-0.138C0.234,-0.113 0.262,-0.1 0.297,-0.1C0.323,-0.1 0.344,-0.108 0.361,-0.122C0.377,-0.137 0.389,-0.163 0.396,-0.199L0.531,-0.176C0.517,-0.114 0.49,-0.067 0.45,-0.036C0.41,-0.004 0.357,0.012 0.291,0.012C0.215,0.012 0.154,-0.012 0.109,-0.06C0.064,-0.108 0.042,-0.174 0.042,-0.259C0.042,-0.344 0.064,-0.411 0.109,-0.459C0.155,-0.506 0.216,-0.53 0.293,-0.53C0.356,-0.53 0.406,-0.517 0.444,-0.49C0.481,-0.462 0.508,-0.421 0.524,-0.365Z" style="fill:rgb(237,237,237);fill-rule:nonzero;"/>
        </g>
        <g transform="matrix(18.667,0,0,18.667,113.032,0)">
            <path d="M0.023,-0.148L0.161,-0.169C0.167,-0.142 0.179,-0.122 0.197,-0.108C0.215,-0.094 0.24,-0.087 0.272,-0.087C0.307,-0.087 0.334,-0.094 0.352,-0.107C0.364,-0.116 0.37,-0.128 0.37,-0.144C0.37,-0.154 0.367,-0.163 0.36,-0.169C0.354,-0.176 0.338,-0.182 0.314,-0.188C0.204,-0.212 0.134,-0.234 0.104,-0.254C0.063,-0.282 0.042,-0.321 0.042,-0.371C0.042,-0.416 0.06,-0.454 0.096,-0.484C0.131,-0.515 0.186,-0.53 0.261,-0.53C0.332,-0.53 0.384,-0.519 0.419,-0.496C0.453,-0.472 0.477,-0.438 0.49,-0.393L0.361,-0.369C0.355,-0.389 0.345,-0.405 0.329,-0.416C0.314,-0.426 0.292,-0.432 0.263,-0.432C0.227,-0.432 0.201,-0.427 0.186,-0.417C0.175,-0.409 0.17,-0.4 0.17,-0.389C0.17,-0.379 0.174,-0.371 0.184,-0.364C0.196,-0.355 0.239,-0.342 0.312,-0.325C0.385,-0.309 0.436,-0.288 0.465,-0.264C0.493,-0.24 0.508,-0.206 0.508,-0.162C0.508,-0.115 0.488,-0.074 0.448,-0.04C0.409,-0.005 0.35,0.012 0.272,0.012C0.201,0.012 0.145,-0.003 0.104,-0.031C0.063,-0.06 0.036,-0.099 0.023,-0.148Z" style="fill:rgb(237,237,237);fill-rule:nonzero;"/>
        </g>
    </g>
    <g transform="matrix(1.11255,0,0,1.11255,21.704,-229.275)">
        <g transform="matrix(0.0102158,0,0,0.0102158,-20.6592,208.039)">
            <path d="M2701.4,452.339C2743.06,468.414 2784.11,486.116 2824.47,505.415L3065.16,308.933C3200.95,385.259 3327.4,477.128 3441.95,582.686L3329.47,872.321C3434.03,982.273 3523.6,1105.56 3595.86,1238.98L3906.08,1221.5C3971.07,1363.07 4019.37,1511.71 4050,1664.44L3788.75,1832.64C3808.72,1983.06 3808.72,2135.45 3788.75,2285.86L4050,2454.06C4019.37,2606.79 3971.07,2755.44 3906.08,2897L3595.86,2879.53C3523.6,3012.95 3434.03,3136.23 3329.47,3246.18L3441.95,3535.82C3327.4,3641.38 3200.95,3733.24 3065.16,3809.57L2824.47,3613.09C2687.58,3678.55 2542.65,3725.64 2393.43,3753.14L2314.19,4053.58C2159.47,4071.64 2003.18,4071.64 1848.46,4053.58L1769.22,3753.14C1620,3725.64 1475.07,3678.55 1338.18,3613.09L1097.48,3809.57C961.694,3733.24 835.248,3641.38 720.696,3535.82L833.181,3246.18C728.621,3136.23 639.049,3012.95 566.789,2879.53L256.569,2897C191.576,2755.44 143.278,2606.79 112.649,2454.06L373.895,2285.86C353.932,2135.45 353.932,1983.06 373.895,1832.64L112.649,1664.44C143.278,1511.71 191.576,1363.07 256.569,1221.5L566.789,1238.98C639.049,1105.56 728.621,982.273 833.181,872.321L720.696,582.686C835.248,477.128 961.694,385.259 1097.48,308.933L1338.18,505.415C1378.54,486.116 1419.59,468.414 1461.25,452.339L1461.25,452.953C1461.25,566.573 1491.87,673.097 1545.31,764.712C1037.76,975.326 680.419,1475.89 680.419,2059.25C680.419,2832.43 1308.14,3460.16 2081.32,3460.16C2854.51,3460.16 3482.23,2832.43 3482.23,2059.25C3482.23,1475.89 3124.89,975.326 2617.34,764.712C2670.78,673.097 2701.4,566.573 2701.4,452.953L2701.4,452.339Z" style="fill:rgb(59,131,181);"/>
        </g>
        <g transform="matrix(0.00688461,0,0,0.00688461,-13.7082,214.764)">
            <circle cx="2078.74" cy="2078.74" r="2078.74" style="fill:white;"/>
        </g>
        <g transform="matrix(0.00761987,0,0,0.00761987,-35.6663,186.997)">
            <circle cx="4759.84" cy="3437.01" r="625.984" style="fill:white;stroke:white;stroke-width:1.34px;"/>
        </g>
        <g transform="matrix(0.00495128,0,0,0.00495128,-22.9642,196.169)">
            <circle cx="4759.84" cy="3437.01" r="625.984" style="fill:rgb(34,44,48);"/>
        </g>
        <g transform="matrix(0.0102158,0,0,0.0102158,-9.20486,238.073)">
            <g transform="matrix(2500,0,0,2500,0,0)">
                <path d="M0.085,-0L0.227,-0L0.227,-0.451L0.234,-0.451L0.561,-0L0.683,-0L0.683,-0.705L0.542,-0.705L0.542,-0.256L0.534,-0.256L0.208,-0.705L0.085,-0.705L0.085,-0Z" style="fill:rgb(34,44,48);fill-rule:nonzero;"/>
            </g>
        </g>
    </g>
    <defs>
        <linearGradient id="_Linear1" x1="0" y1="0" x2="1" y2="0" gradientUnits="userSpaceOnUse" gradientTransform="matrix(274.988,89.0925,-89.0925,274.988,-24.4484,168.723)"><stop offset="0" style="stop-color:rgb(23,87,142);stop-opacity:1"/><stop offset="1" style="stop-color:rgb(50,112,154);stop-opacity:1"/></linearGradient>
    </defs>
</svg>
